<svg xmlns="http://www.w3.org/2000/svg" viewBox="0 0 512 512"><path d="M437.02 74.98C388.667 26.629 324.38 0 256 0S123.333 26.629 74.98 74.98C26.629 123.333 0 187.62 0 256s26.629 132.667 74.98 181.02C123.333 485.371 187.62 512 256 512s132.667-26.629 181.02-74.98C485.371 388.667 512 324.38 512 256s-26.629-132.667-74.98-181.02zM256 482C131.383 482 30 380.617 30 256S131.383 30 256 30s226 101.383 226 226-101.383 226-226 226z" fill="#2196f3"/><path d="M256 75c-99.804 0-181 81.196-181 181s81.196 181 181 181 181-81.196 181-181S355.804 75 256 75zm132.141 107.999c5.23 9.43 9.478 19.473 12.61 29.995C399.72 228.609 386.696 241 370.824 241h-56.723c-.091-.354-.202-.7-.299-1.052l49.138-28.37c11.423-6.594 20.158-16.572 25.201-28.579zm-54.203-56.286c9.383 5.678 18.103 12.347 26.011 19.863 3.113 6.442 3.806 13.741 1.917 20.791-2.083 7.774-7.029 14.248-13.926 18.23l-49.163 28.384c-.251-.255-.504-.508-.759-.759l28.384-49.163c6.594-11.421 9.171-24.428 7.536-37.346zm-42.816-17.579c13.015 8.698 17.237 26.177 9.3 39.926l-28.37 49.138c-.351-.098-.698-.208-1.052-.299v-56.723c0-13.56-4.527-26.08-12.143-36.139 11.085.207 21.881 1.614 32.265 4.097zm-78.129 2.116C228.609 112.28 241 125.304 241 141.176v56.723c-.354.091-.7.202-1.052.299l-28.37-49.138c-6.594-11.423-16.572-20.158-28.579-25.201 9.429-5.23 19.473-9.477 29.994-12.609zm-66.417 40.801c6.443-3.114 13.742-3.804 20.791-1.917 7.774 2.083 14.248 7.029 18.23 13.926l28.384 49.163c-.255.251-.508.504-.759.759l-49.163-28.384c-11.421-6.594-24.428-9.171-37.346-7.536 5.678-9.384 12.347-18.103 19.863-26.011zm-37.442 68.827c8.698-13.015 26.178-17.237 39.926-9.3l49.138 28.37c-.098.352-.208.698-.299 1.052h-56.723c-13.56 0-26.08 4.527-36.139 12.143.207-11.085 1.614-21.881 4.097-32.265zm14.725 108.123c-5.23-9.43-9.478-19.473-12.61-29.995C112.28 283.391 125.304 271 141.176 271h56.723c.091.354.202.7.299 1.052l-49.138 28.37c-11.423 6.594-20.158 16.572-25.201 28.579zm54.203 56.286c-9.383-5.678-18.103-12.347-26.011-19.863-3.113-6.442-3.806-13.74-1.917-20.791 2.083-7.774 7.029-14.248 13.926-18.23l49.163-28.384c.251.255.504.508.759.759l-28.384 49.163c-6.594 11.421-9.171 24.428-7.536 37.346zm42.816 17.579c-13.015-8.698-17.237-26.177-9.3-39.926l28.37-49.138c.351.098.698.208 1.052.299v56.723c0 13.561 4.527 26.08 12.143 36.139-11.085-.207-21.881-1.614-32.265-4.097zM226 256c0-16.542 13.458-30 30-30s30 13.458 30 30-13.458 30-30 30-30-13.458-30-30zm73.007 144.75C283.391 399.72 271 386.696 271 370.824v-56.723c.354-.092.7-.202 1.052-.299l28.37 49.138c6.594 11.423 16.572 20.158 28.579 25.201-9.429 5.23-19.473 9.478-29.994 12.609zm66.417-40.801c-6.443 3.115-13.739 3.806-20.791 1.917-7.774-2.083-14.248-7.029-18.23-13.926l-28.384-49.163c.255-.251.508-.504.759-.759l49.163 28.384c9.199 5.312 19.428 8.024 29.81 8.024 2.506 0 5.021-.163 7.532-.48-5.678 9.381-12.345 18.097-19.859 26.003zm-2.484-59.527l-49.138-28.37c.098-.352.208-.698.299-1.052h56.723c13.56 0 26.08-4.527 36.139-12.143-.207 11.085-1.614 21.881-4.097 32.265-8.697 13.015-26.177 17.239-39.926 9.3z" fill="#2196f3"/></svg>