<?xml version="1.0" encoding="utf-8"?>
<!-- Generator: Adobe Illustrator 15.0.0, SVG Export Plug-In . SVG Version: 6.00 Build 0)  -->
<!DOCTYPE svg PUBLIC "-//W3C//DTD SVG 1.1//EN" "http://www.w3.org/Graphics/SVG/1.1/DTD/svg11.dtd">
<svg version="1.1" id="Layer_1" xmlns="http://www.w3.org/2000/svg" xmlns:xlink="http://www.w3.org/1999/xlink" x="0px" y="0px"
	 width="1514px" height="1102.396px" viewBox="0 0 1514 1102.396" enable-background="new 0 0 1514 1102.396" xml:space="preserve">
<path fill-rule="evenodd" clip-rule="evenodd" fill="#FFFFFF" d="M1514,0C913.432,311.524,543.078,678.99,402.939,1102.396h-73.01
	C514.721,625.574,888.528,258.107,1451.355,0H1514z M1449.809,0C802.011,233.668,370.92,601.134,156.536,1102.396H0V0H1449.809z"/>
<path fill-rule="evenodd" clip-rule="evenodd" fill="#10122E" d="M402.939,1102.396C543.078,678.99,913.432,311.524,1514,0v1102.396
	H402.939z"/>
<path fill-rule="evenodd" clip-rule="evenodd" fill="#766755" d="M1451.355,0C888.528,258.107,514.721,625.574,329.93,1102.396
	H156.536C370.92,601.134,802.011,233.668,1449.809,0H1451.355z"/>
<g>
	<path fill-rule="evenodd" clip-rule="evenodd" fill="#766755" d="M397.368,54.501l15.16,68.364
		c0.821,2.886,1.854,2.989,3.093,0.314l30.006-69.294c0.411-1.239,1.44-1.855,3.094-1.855h20.107c1.438,0,2.369,0.616,2.78,1.855
		c0.622,1.239,0.622,2.574,0,4.018l-30.006,67.438c-3.71,8.248-8.042,13.923-12.99,17.015c-4.332,2.683-10.314,4.127-17.945,4.333
		h-66.198c-4.743-0.206-6.084-2.168-4.018-5.879l6.495-14.536c0.822-1.444,2.163-2.171,4.019-2.171h36.503L372,56.356
		c-0.613-2.882,0.723-4.326,4.024-4.326h17.322C395.616,52.03,396.957,52.852,397.368,54.501z M646.697,52.03h51.969
		c7.635,0,13.305,3.504,17.015,10.514c3.299,6.604,3.505,13.2,0.619,19.797l-29.386,62.18c-0.619,1.443-1.758,2.168-3.404,2.168
		h-18.562c-4.946-0.206-6.29-2.168-4.021-5.879l29.081-62.485c1.232-2.681,0-4.022-3.713-4.022h-62.183
		c-2.677-0.207-4.019-1.548-4.019-4.024V39.343c0-2.677,1.342-4.018,4.019-4.018h15.162c2.475,0,3.713,1.341,3.713,4.018v8.973
		C643.398,50.588,644.637,51.82,646.697,52.03z M758.371,56.048l24.746,43.617l21.347-45.78c0.616-1.239,1.855-1.855,3.71-1.855
		h14.229c6.598,0,7.528,5.154,2.785,15.468l-27.226,58.152l9.28,16.398c1.649,2.887,0.726,4.434-2.779,4.639h-17.631
		c-2.478,0-4.332-1.033-5.571-3.092l-25.986-46.094l-16.393,34.643c-2.478,4.955-5.982,8.769-10.52,11.451
		c-3.713,2.059-9.178,3.092-16.393,3.092h-0.931c-3.915-0.206-5.153-1.752-3.71-4.639l33.1-70.226l-8.973-16.082
		c-1.444-2.479-0.514-3.711,2.785-3.711h16.7C754.453,52.03,756.925,53.366,758.371,56.048z M279.818,39.343v8.973
		c0.41,2.272,1.649,3.504,3.71,3.714H335.5c7.628,0,13.302,3.504,17.011,10.514c3.3,6.604,3.511,13.2,0.623,19.797l-29.39,62.18
		c-0.824,1.443-1.96,2.168-3.401,2.168h-18.562c-4.743-0.206-6.188-2.168-4.332-5.879l29.389-62.485
		c1.239-2.681,0-4.022-3.713-4.022h-62.487c-2.475-0.207-3.71-1.548-3.71-4.024V39.343c0-2.677,1.235-4.018,3.71-4.018h15.468
		C278.582,35.325,279.818,36.667,279.818,39.343z"/>
	<path fill-rule="evenodd" clip-rule="evenodd" fill="#10122E" d="M542.138,52.03c2.683,0,4.024,1.233,4.024,3.711v86.614
		c0,2.683-1.342,4.127-4.024,4.333h-15.153c-2.683-0.206-4.021-1.65-4.021-4.333v-12.987h-43.002l-5.26,11.44
		c-2.06,3.711-4.537,5.674-7.419,5.879h-12.686c-4.743-0.206-6.085-2.168-4.021-5.879l34.954-75.172
		c4.127-9.069,10.622-13.607,19.489-13.607H542.138z M564.412,52.03h14.849c2.478,0,3.71,1.233,3.71,3.711v64.962
		c0,2.059,1.239,3.195,3.716,3.398h62.796c1.855,0,2.58,0.727,2.164,2.171l-8.039,16.083c-1.242,2.683-2.892,4.127-4.952,4.333
		h-74.243c-2.474-0.206-3.713-1.547-3.713-4.023V55.742C560.699,53.263,561.938,52.03,564.412,52.03z M113.7,52.03h68.056
		c2.478,0,3.816,1.233,4.024,3.711v16.082c-0.208,1.445-1.136,2.271-2.785,2.479h-65.582c-2.267,0-3.402,1.239-3.402,3.707v7.119
		c0,2.479,1.135,3.71,3.402,3.71h59.395c2.474,0,3.713,1.136,3.713,3.408v13.605c0,2.479-1.239,3.717-3.713,3.717h-59.395
		c-2.267,0-3.402,1.237-3.402,3.708v7.118c0,2.266,1.135,3.504,3.402,3.708h67.437c1.858,0,2.372,0.727,1.547,2.171l-7.734,16.083
		c-1.236,2.683-2.885,4.127-4.949,4.333H93.593c-2.68-0.206-4.021-1.547-4.021-4.023V76.777c0-6.808,2.372-12.687,7.115-17.635
		C101.433,54.604,107.102,52.236,113.7,52.03z M219.808,55.742v64.962c0,2.059,1.232,3.195,3.709,3.398h62.796
		c1.857,0,2.478,0.727,1.857,2.171l-7.733,16.083c-1.238,2.683-2.892,4.127-4.948,4.333h-74.243
		c-2.476-0.206-3.711-1.547-3.711-4.023V55.742c0-2.479,1.235-3.711,3.711-3.711h14.849
		C218.569,52.03,219.808,53.263,219.808,55.742z M509.655,72.753c-2.061,0-3.296,0.618-3.707,1.856l-16.087,34.025h30.316
		c2.063-0.204,3.193-1.442,3.398-3.708v-28.77c0-2.266-1.133-3.403-3.398-3.403H509.655z M1006.151,52.03
		c3.305,0,4.126,1.548,2.478,4.642l-5.88,12.987c-1.649,3.094-4.018,4.642-7.111,4.642H851.792c-3.299,0-4.127-1.548-2.477-4.642
		l6.187-12.987c1.239-3.094,3.505-4.642,6.804-4.642H1006.151z M961.916,146.688H817.763c-3.094-0.206-3.915-1.855-2.471-4.949
		l6.187-12.995c1.438-3.094,3.71-4.642,6.804-4.642h144.153c3.299,0,4.127,1.548,2.478,4.642l-5.885,12.995
		C967.379,144.833,965.01,146.483,961.916,146.688z M916.135,81.726l2.472,7.112h9.903c2.677,0,2.888,1.24,0.616,3.716l-6.188,7.111
		l2.478,6.808c0.821,2.062-0.103,3.198-2.785,3.402h-8.351l-6.495,7.118c-1.239,1.649-2.17,1.547-2.786-0.314l-2.477-6.803h-10.205
		c-2.683-0.204-2.889-1.649-0.623-4.332l6.502-7.11l-2.478-6.503c-1.033-2.059-0.103-3.092,2.785-3.092h8.351l6.188-7.734
		C914.485,79.873,915.513,80.077,916.135,81.726z"/>
</g>
</svg>
