<svg xmlns="http://www.w3.org/2000/svg" height="66" width="420"><path d="M24.248 33.722c2.76-10.386-.388-21.27-7.918-27.038C6.073 13.187.158 25.416 2.294 38.155A30.954 30.954 0 0 0 6.669 49.63c8.02-2.236 15.072-6.471 17.578-15.907m13.845 29.972c16.93-2.846 28.344-18.9 25.5-35.848-2.366-14.109-13.85-24.39-27.394-25.81a31.155 31.155 0 0 0-8.406.267 30.858 30.858 0 0 0-9.39 3.19C33.321 10.56 41.343 18.264 41.9 26.16c.273 4.873-1.989 8.399-4.96 11.272l21.098-1.475c.597-.041.784.656.062.863L7.778 51.27C12.9 58.337 20.855 63.037 29.69 63.963c2.734.287 5.558.214 8.404-.268M36.395.18C52.967 1.91 65.893 15.935 65.9 32.99 65.905 51.212 51.157 65.993 32.96 66 14.762 66.006.006 51.237 0 33.013-.006 14.787 14.74.006 32.937 0c1.166 0 2.321.064 3.458.181" fill="#fff"/><path d="M2.294 38.157A30.958 30.958 0 0 0 6.669 49.63c8.02-2.236 15.072-6.471 17.58-15.907 2.758-10.386-.39-21.27-7.922-27.038C6.072 13.187.157 25.418 2.293 38.157m61.298-10.313c2.844 16.95-8.57 33.004-25.5 35.85a30.99 30.99 0 0 1-8.406.268c-8.83-.925-16.79-5.626-21.91-12.693l50.322-14.45c.722-.209.536-.904-.062-.863l-21.098 1.475c2.972-2.873 5.233-6.399 4.96-11.272-.556-7.895-8.579-15.599-23.499-20.668a30.858 30.858 0 0 1 9.391-3.19 31.157 31.157 0 0 1 8.406-.267c13.543 1.42 25.028 11.702 27.394 25.809" fill="#c70a0c"/><path d="M236.56 45.941v-10.85h-10.862v10.85h-5.962V20.097h5.962v10.296h10.862V20.097h6.007V45.94h-6.007zM108.057 20.096v16.18c0 1.788.263 3.337.782 4.595.515 1.247 1.262 2.285 2.22 3.082.968.805 2.135 1.4 3.468 1.766 1.354.375 2.883.565 4.543.565 1.658 0 3.174-.191 4.5-.565 1.305-.366 2.417-.958 3.31-1.758.89-.797 1.59-1.836 2.08-3.085.492-1.254.738-2.802.738-4.6V20.095h-5.578v16.007c0 1.63-.405 2.948-1.2 3.914-.815.985-2.11 1.485-3.85 1.485-1.707 0-2.993-.498-3.822-1.48-.813-.965-1.225-2.282-1.225-3.919V20.095h-5.965zM90.858 45.945V24.922h-7.011v-4.826h20.026v2.314a2.511 2.511 0 0 1-2.506 2.512H96.82v21.023h-5.964zM186.695 20.094h5.964v25.845h-5.964zM166.835 33.888l.2.257 7.62 9.831a5.041 5.041 0 0 0 4.012 1.971h4.75l-10.915-13.903-.16-.205.16-.204 8.973-11.55h-6.205l-8.228 11.14-.207.27-.003-.467V20.086h-5.963v25.847h5.963V34.35l.003-.461zM141.168 31.925h3.477c1.252 0 2.206-.346 2.834-1.022.621-.67.938-1.541.938-2.588 0-1.072-.309-1.955-.913-2.625-.616-.682-1.576-1.025-2.859-1.025h-3.477v7.26zm11.926 14.012a5.101 5.101 0 0 1-4.344-2.451l-4.64-7.673h-2.941v10.125h-5.959v-25.84h10.626c2.73 0 4.868.713 6.354 2.121 1.482 1.404 2.234 3.328 2.234 5.716 0 1.213-.323 2.441-.959 3.652-.628 1.19-1.74 2.165-3.31 2.895l-.345.16 7.24 11.296h-3.955zM197.553 44.844v-4.956c1.9.875 4.345 1.75 6.874 1.75 2.91 0 4.386-.999 4.386-2.915 0-2.248-1.98-2.498-5.947-4.205-2.698-1.207-5.27-3.08-5.27-7.41 0-5.037 3.838-7.412 9.151-7.412 2.825 0 5.23.666 6.579 1.166v4.83c-1.348-.625-3.754-1.375-6.158-1.375-2.615 0-3.838.958-3.838 2.623 0 1.75 1.478 2.292 4.133 3.291 3.415 1.706 7.382 2.457 7.382 8.286 0 5.038-4.007 7.786-9.365 7.786-3.289 0-5.902-.584-7.928-1.457M381.76 45.94V20.091h16.16v2.345c0 1.37-1.111 2.481-2.476 2.481h-7.72v5.56h8.668v4.314h-8.667v6.323h10.196v4.824h-16.16zM322.803 45.937V20.092h2.897a3.07 3.07 0 0 1 3.064 3.068v18.121h9.52v4.655h-15.48zM285.887 45.932V20.104h5.963v25.828h-5.963zM303.28 31.92h3.477c1.252 0 2.205-.343 2.834-1.019.621-.672.938-1.541.938-2.59 0-1.07-.309-1.955-.916-2.625-.613-.68-1.576-1.025-2.857-1.025h-3.477v7.26zm11.926 14.012a5.109 5.109 0 0 1-4.347-2.45l-4.637-7.672h-2.94v10.122h-5.96V20.094h10.624c2.732 0 4.868.713 6.355 2.121 1.482 1.404 2.234 3.328 2.234 5.716 0 1.213-.323 2.441-.96 3.652-.628 1.188-1.74 2.163-3.309 2.895l-.345.16 7.24 11.294h-3.955zM265.39 36.52l2.342-6.531c.519-1.47 1.04-3.022 1.387-4.164h.086c.303 1.183.824 2.654 1.344 4.164l2.255 6.532h-7.415zm7.369-16.43h-6.85l-9.731 25.847h4.295a2.517 2.517 0 0 0 2.395-1.732l.999-3.034h10.466l1.532 4.766h6.46l-9.567-25.847zM402.71 44.844V39.89c1.897.873 4.344 1.747 6.874 1.747 2.91 0 4.386-.999 4.386-2.915 0-2.248-1.982-2.498-5.945-4.203-2.698-1.209-5.273-3.08-5.273-7.413 0-5.037 3.838-7.412 9.15-7.412 2.827 0 5.231.666 6.582 1.166v4.83c-1.351-.623-3.755-1.373-6.157-1.373-2.615 0-3.838.958-3.838 2.623 0 1.747 1.475 2.29 4.13 3.29 3.418 1.705 7.381 2.456 7.381 8.285 0 5.038-4.006 7.786-9.361 7.786-3.29 0-5.905-.584-7.928-1.457M353.544 20.096h3.696c1.754 0 3.386.906 4.313 2.398l7.198 11.581c.813 1.287 1.754 2.987 2.313 4.19h.126a61.01 61.01 0 0 1-.126-3.94V20.097h5.225V45.94h-6.54l-8.752-13.981a56.662 56.662 0 0 1-2.271-3.981h-.085c.043 1.12.128 2.448.128 3.691V45.94h-5.225V20.097zM342.121 20.104h5.962v25.828h-5.962z"/></svg>