<svg xmlns="http://www.w3.org/2000/svg" width="240" height="65" clip-rule="evenodd" fill-rule="evenodd"><path d="M94.25-134.278c2.76-10.37-.388-21.237-7.918-26.996-10.257 6.493-16.172 18.703-14.036 31.423a30.879 30.879 0 0 0 4.375 11.456c8.02-2.233 15.072-6.461 17.578-15.883m13.845 29.927c16.929-2.842 28.344-18.871 25.5-35.794-2.366-14.087-13.851-24.353-27.394-25.771a31.202 31.202 0 0 0-8.406.267 30.89 30.89 0 0 0-9.391 3.185c14.92 5.061 22.943 12.753 23.499 20.636.273 4.866-1.989 8.386-4.96 11.255l21.098-1.473c.597-.041.784.655.062.862L77.78-116.756c5.122 7.056 13.077 11.749 21.912 12.673 2.734.287 5.558.214 8.404-.267m-1.699-63.418c16.572 1.726 29.498 15.731 29.504 32.759.006 18.196-14.742 32.954-32.939 32.96-18.198.006-32.954-14.74-32.96-32.937-.006-18.198 14.74-32.956 32.937-32.962 1.166 0 2.321.064 3.458.181" fill="#fff"/><path d="M175.76 37.31a30.882 30.882 0 0 0 4.375 11.454c8.02-2.233 15.072-6.46 17.58-15.883 2.758-10.37-.39-21.237-7.922-26.996-10.255 6.493-16.17 18.705-14.034 31.425m61.298-10.298c2.844 16.925-8.57 32.954-25.5 35.796-2.847.48-5.67.554-8.406.267-8.83-.923-16.79-5.617-21.91-12.673l50.322-14.428c.722-.209.536-.903-.062-.862l-21.098 1.473c2.972-2.869 5.233-6.389 4.96-11.255-.556-7.883-8.579-15.575-23.499-20.636a30.89 30.89 0 0 1 9.391-3.185 31.204 31.204 0 0 1 8.406-.267c13.543 1.418 25.028 11.684 27.394 25.77" fill="#c70a0c"/><path d="M157.83 31.018V20.184h-10.862v10.834h-5.962V5.213h5.962v10.28h10.862V5.213h6.007v25.805h-6.007zM29.328 5.212v16.156c0 1.785.263 3.33.782 4.587.515 1.246 1.262 2.282 2.221 3.078.967.804 2.134 1.398 3.467 1.763 1.354.374 2.883.564 4.543.564 1.658 0 3.174-.191 4.5-.564 1.305-.365 2.417-.956 3.31-1.755.891-.796 1.59-1.833 2.08-3.081.492-1.252.738-2.797.738-4.593V5.21h-5.578v15.983c0 1.627-.405 2.943-1.2 3.908-.815.983-2.11 1.482-3.849 1.482-1.708 0-2.994-.497-3.823-1.478-.813-.963-1.225-2.278-1.225-3.912V5.21H29.33zM12.13 31.022V10.03H5.117V5.21h20.026v2.312a2.509 2.509 0 0 1-2.506 2.508h-4.546v20.99h-5.964zM107.966 5.21h5.964v25.806h-5.964zM88.106 18.983l.2.257 7.62 9.816a5.044 5.044 0 0 0 4.012 1.968h4.75L93.773 17.142l-.16-.205.16-.203 8.973-11.532h-6.205l-8.228 11.123-.207.269-.003-.466V5.202H82.14V31.01h5.963V19.443l.003-.46zM62.44 17.023h3.476c1.252 0 2.206-.345 2.834-1.02.621-.67.938-1.54.938-2.584 0-1.071-.309-1.952-.913-2.621-.616-.681-1.576-1.024-2.859-1.024H62.44v7.249zm11.925 13.99a5.103 5.103 0 0 1-4.344-2.447l-4.64-7.661h-2.94v10.11h-5.96V5.214h10.626c2.73 0 4.868.712 6.354 2.118 1.482 1.402 2.234 3.323 2.234 5.707 0 1.21-.323 2.438-.959 3.647-.628 1.188-1.74 2.16-3.31 2.89l-.345.16 7.24 11.279h-3.955zM118.824 29.922v-4.948c1.9.874 4.345 1.747 6.874 1.747 2.91 0 4.386-.997 4.386-2.91 0-2.245-1.98-2.494-5.947-4.2-2.698-1.204-5.27-3.075-5.27-7.397 0-5.03 3.838-7.401 9.151-7.401 2.825 0 5.23.665 6.578 1.164V10.8c-1.348-.624-3.753-1.373-6.157-1.373-2.615 0-3.838.956-3.838 2.619 0 1.747 1.478 2.288 4.133 3.286 3.415 1.703 7.381 2.453 7.381 8.273 0 5.03-4.006 7.774-9.364 7.774-3.289 0-5.902-.583-7.928-1.455"/><g><path d="M128.111 60.923V35.115h16.16v2.342a2.48 2.48 0 0 1-2.477 2.477h-7.719v5.551h8.667v4.308h-8.667v6.313h10.196v4.817h-16.16zM69.154 60.921V35.115h2.897a3.068 3.068 0 0 1 3.064 3.064v18.093h9.519v4.648h-15.48zM32.238 60.916V35.127h5.963l-.001 25.79h-5.962zM49.631 46.926h3.477c1.252 0 2.205-.343 2.834-1.018.621-.67.938-1.539.938-2.586 0-1.069-.309-1.952-.916-2.62-.613-.68-1.576-1.025-2.857-1.025H49.63v7.25zm11.926 13.99a5.11 5.11 0 0 1-4.347-2.446l-4.637-7.66h-2.941v10.106h-5.959V35.117h10.624c2.732 0 4.868.712 6.355 2.118 1.482 1.402 2.234 3.323 2.234 5.707 0 1.211-.323 2.438-.961 3.647-.627 1.186-1.74 2.16-3.308 2.89l-.345.16 7.24 11.277h-3.955zM11.741 51.52l2.342-6.523c.519-1.467 1.04-3.017 1.387-4.158h.086c.303 1.182.824 2.65 1.344 4.158l2.255 6.522H11.74zm7.369-16.407h-6.849L2.529 60.921h4.295a2.516 2.516 0 0 0 2.395-1.73l.999-3.029h10.466l1.532 4.76h6.46l-9.567-25.809zM149.061 59.83v-4.947c1.896.872 4.343 1.744 6.873 1.744 2.911 0 4.386-.997 4.386-2.91 0-2.245-1.982-2.494-5.945-4.197-2.698-1.207-5.273-3.076-5.273-7.4 0-5.03 3.838-7.402 9.151-7.402 2.826 0 5.23.665 6.581 1.164v4.823c-1.351-.622-3.755-1.37-6.157-1.37-2.615 0-3.838.955-3.838 2.618 0 1.744 1.475 2.286 4.131 3.284 3.417 1.703 7.38 2.453 7.38 8.273 0 5.03-4.006 7.774-9.361 7.774-3.29 0-5.905-.583-7.928-1.455M99.894 35.12h3.696a5.08 5.08 0 0 1 4.313 2.394l7.198 11.563c.813 1.285 1.754 2.982 2.313 4.183h.126a60.824 60.824 0 0 1-.126-3.934V35.12h5.225v25.804H116.1l-8.753-13.96a56.552 56.552 0 0 1-2.271-3.975h-.085c.043 1.118.128 2.444.128 3.686v14.25h-5.225V35.12zM88.472 35.127h5.962v25.79h-5.962z"/></g></svg>